<?xml version="1.0" encoding="UTF-8"?>
<svg width="159px" height="32px" viewBox="0 0 159 32" version="1.1" xmlns="http://www.w3.org/2000/svg" xmlns:xlink="http://www.w3.org/1999/xlink">
    <!-- Generator: Sketch 50.2 (55047) - http://www.bohemiancoding.com/sketch -->
    <title>Group 8 Copy@1x</title>
    <desc>Created with Sketch.</desc>
    <defs></defs>
    <g id="Logo-Assets" stroke="none" stroke-width="1" fill="none" fill-rule="evenodd">
        <g id="Group-8-Copy" fill="#343434">
            <g id="foundlost-vertical-white-copy-12">
                <path d="M0,0 L26.88,0 L26.88,32 L0,32 L0,0 Z M1.28,1.28 L1.28,25.6 L25.6,25.6 L25.6,1.28 L1.28,1.28 Z M1.28,26.88 L1.28,30.72 L25.6,30.72 L25.6,26.88 L1.28,26.88 Z" id="Combined-Shape"></path>
                <path d="M13.0161416,14.6403977 C13.623793,14.6403977 11.9864612,20.708303 12.6081817,20.54324 C12.9342472,20.4566716 13.595647,20.9728494 14.0167634,20.54324 C14.1665255,20.3904576 13.2724399,20.2443927 13.3055261,20.0162538 C13.420868,19.2209359 13.8202199,17.048187 14.5155127,16.0197019 C14.8900923,15.4656195 15.4126973,20.7530971 15.7918413,20.7530971 C16.0428853,20.7530971 16.7065202,20.9878967 17.3502309,20.7530971 C17.7328642,20.6135279 16.623181,20.4301402 16.4669999,20.0162538 C16.192415,19.2885922 15.8319709,16.8704978 16.0428853,16.0197019 C16.2984554,14.9887719 16.2936494,14.5308002 16.7065202,13.8789298 C16.9756218,13.4540527 18.2814449,14.6403977 19.695785,13.8789298 C22.2245562,12.5174624 21.841404,10.3594899 22.0287383,8.88829029 C22.0789958,8.49360146 23.4072606,8.14569818 23.3587005,7.85125554 C23.2458924,7.16724734 22.2045667,7.0179522 21.571022,6.75616388 C20.9727589,6.50895435 20.8297245,6.19377474 20.7772879,6.11114638 C20.7127153,6.00939424 19.5426954,6.11385298 19.0555205,7.08351959 C18.6294531,7.93155864 18.9927781,9.41875398 18.3806851,9.88921259 C17.5311719,10.5421538 16.4751411,9.19314236 15.9322561,8.70560074 C15.2241022,8.06963823 14.5487609,6.5492894 13.7227751,6.5492894 C12.9816093,6.5492894 12.7045974,8.12274043 11.9596506,8.12274043 C11.2314063,8.12274043 10.053004,6.38746854 9.43916596,6.75616388 C8.89415401,7.08351959 6.43894641,8.64636143 5.60253662,10.2079397 C4.73560702,11.8264984 5.28816626,13.7489854 5.28816626,14.0538632 C5.28816626,14.249958 5.30249413,14.8487395 5.07664745,15.528615 C4.95160057,15.9050488 4.86299858,16.4170041 4.8164253,16.8826117 C4.73848602,17.6617952 4.95672274,18.3077465 5.07664745,19.0546397 C5.27596723,20.2960069 4.95913688,21.1942325 5.82827156,21.1151587 C6.08029373,21.0922298 6.51790503,21.1151587 6.93284664,20.9878967 C7.05321129,20.950981 6.15730721,20.657215 6.12939508,20.54324 C5.96874523,19.8872503 5.60253662,18.6333939 5.82827156,17.7140047 C5.92447856,17.322166 5.86555534,16.2859992 6.29503456,16.0197019 C6.51351089,15.8842362 6.12939508,17.1661555 6.37746664,17.3663799 C6.62553819,17.5666043 7.28909131,20.7083565 7.65558298,20.54324 C7.94715808,20.4118758 8.74685404,20.7573581 9.04854849,20.54324 C9.23484768,20.41102 8.28243299,20.0202502 8.20592381,19.8110323 C8.10019275,19.521906 7.31485981,17.4859858 7.48552821,17.1129065 C7.8506956,16.3146545 7.46160425,14.6560124 8.36753347,14.1416782 C9.21895169,13.6582922 10.0035918,14.4090561 11.0381607,14.6403977 C12.2774737,14.9175224 12.9005078,14.6403977 13.0161416,14.6403977 Z" id="camel-copy-11"></path>
            </g>
            <text id="FOUNDLOST" font-family="SourceCodePro-Bold, Source Code Pro" font-size="20" font-weight="bold" line-spacing="24" letter-spacing="2.08333349">
                <tspan x="35" y="24">FOUNDLOST</tspan>
            </text>
        </g>
    </g>
</svg>